# xmcd
#
# Track frame offsets: 
#        183
#        12495
#        39918
#        61845
#        106860
#        136425
#        153903
#        186110
#        210598
#        232218
#        240760
#        268613
#        310288
#        333645
#
# Disc length: 4588 seconds
#
# Revision: 4
# Processed by: cddbd v1.5.2PL0 Copyright (c) Steve Scherf et al.
# Submitted via: ExactAudioCopy v1.0b3
#
DISCID=ba11ea0e
DTITLE=Pat Metheny Group - Secret Story
DYEAR=1992
DGENRE=Jazz
TTITLE0=Not To Be Forgotten (Our Final Hour)
TTITLE1=Tell Her You Saw Me
TTITLE2=The Truth Will Always Be
TTITLE3=Antonia
TTITLE4=As A Flower Blossoms (I Am Running To You)
TTITLE5=See The World
TTITLE6=Always And Forever
TTITLE7=Rain River
TTITLE8=Sunlight
TTITLE9=The Longest Summer
TTITLE10=Finding And Believing
TTITLE11=Cathedral In A Suitcase
TTITLE12=Facing West
TTITLE13=Above The Treetops
EXTD=YEAR: 1992
EXTT0=
EXTT1=
EXTT2=
EXTT3=
EXTT4=
EXTT5=
EXTT6=
EXTT7=
EXTT8=
EXTT9=
EXTT10=
EXTT11=
EXTT12=
EXTT13=
PLAYORDER=
